# xmcd
#
# Track frame offsets:
#	150
#	23165
#	38308
#	56301
#	73872
#	87307
#	96346
#	111391
#	128113
#	144246
#	159431
#	174315
#	192578
#	203788
#	217199
#
# Disc length: 3139 seconds
# Revision: 0
# Processed by: cddbd v1.5.2PL0 Copyright (c) Steve Scherf et al.
# Submitted via: dBpowerAMP V12.0
#
DISCID=d20c410f
DTITLE=Steve Phillips and the Rough Diamonds - North Country Blues
DYEAR=2012
DGENRE=Blues
TTITLE0=North Country Blues
TTITLE1=Don't Let The Devil Ride
TTITLE2=House Of The Rising Sun
TTITLE3=Bad Water Rising
TTITLE4=You're A Heart Breaker
TTITLE5=Too Close
TTITLE6=All Mixed Up
TTITLE7=That Lucky Old Sun
TTITLE8=Way In The Midnight
TTITLE9=Born In Time
TTITLE10=Lord Have  Mercy
TTITLE11=Midnight Hour Blues
TTITLE12=That's Alright Mama
TTITLE13=Miss You Blues
TTITLE14='Till Kingdom Come
EXTD=
EXTT0=
EXTT1=
EXTT2=
EXTT3=
EXTT4=
EXTT5=
EXTT6=
EXTT7=
EXTT8=
EXTT9=
EXTT10=
EXTT11=
EXTT12=
EXTT13=
EXTT14=
PLAYORDER=
